<svg width="280" height="96" viewBox="0 0 280 96" fill="none" xmlns="http://www.w3.org/2000/svg">
<path d="M18.12 43.404C14.984 49.868 13.416 55.82 13.416 61.26C13.416 65.804 14.472 69.644 16.584 72.78C18.696 75.98 21.448 78.38 24.84 79.98C28.296 81.58 32.008 82.38 35.976 82.38C38.792 82.38 41.48 81.996 44.04 81.228C48.84 79.756 52.136 77.868 53.928 75.564C55.784 73.26 56.808 70.54 57 67.404C55.464 67.66 53.48 67.788 51.048 67.788C40.808 67.788 35.688 62.988 35.688 53.388C35.688 50.572 36.296 47.948 37.512 45.516C38.792 43.02 40.52 41.036 42.696 39.564C44.936 38.092 47.4 37.356 50.088 37.356C55.272 37.356 59.24 39.148 61.992 42.732C64.744 46.316 66.408 50.444 66.984 55.116C67.112 57.42 67.176 59.5 67.176 61.356C67.176 68.78 65.8 75.5 63.048 81.516C60.296 87.532 54.952 91.724 47.016 94.092C43.816 94.988 40.488 95.436 37.032 95.436C31.08 95.436 25.256 94.188 19.56 91.692C13.928 89.26 9.288 85.58 5.64 80.652C1.992 75.724 0.168 69.772 0.168 62.796C0.168 55.372 2.344 47.308 6.696 38.604L18.12 43.404ZM46.056 52.236C46.056 53.324 46.472 54.284 47.304 55.116C48.136 55.948 49.384 56.364 51.048 56.364C52.648 56.364 53.896 56.364 54.792 56.364C55.688 56.3 56.36 56.268 56.808 56.268C56.808 54.668 56.424 53.004 55.656 51.276C54.888 49.484 53.192 48.588 50.568 48.588C49.224 48.588 48.136 48.972 47.304 49.74C46.472 50.444 46.056 51.276 46.056 52.236ZM43.368 29.1C41.576 29.1 40.008 28.46 38.664 27.18C37.384 25.836 36.744 24.268 36.744 22.476C36.744 20.62 37.384 19.052 38.664 17.772C40.008 16.492 41.576 15.852 43.368 15.852C45.224 15.852 46.792 16.492 48.072 17.772C49.352 19.052 49.992 20.62 49.992 22.476C49.992 24.268 49.352 25.836 48.072 27.18C46.792 28.46 45.224 29.1 43.368 29.1ZM51.624 22.476C51.624 20.62 52.264 19.052 53.544 17.772C54.888 16.492 56.456 15.852 58.248 15.852C60.104 15.852 61.672 16.492 62.952 17.772C64.232 19.052 64.872 20.62 64.872 22.476C64.872 24.268 64.232 25.836 62.952 27.18C61.672 28.46 60.104 29.1 58.248 29.1C56.456 29.1 54.888 28.46 53.544 27.18C52.264 25.836 51.624 24.268 51.624 22.476ZM76.1348 56.94H93.8948C97.0308 56.94 99.3988 56.524 100.999 55.692C102.663 54.796 103.495 53.548 103.495 51.948C103.495 49.644 101.767 46.956 98.3108 43.884C94.9188 40.748 90.1188 37.676 83.9108 34.668L87.1748 22.956C93.4468 25.388 98.6948 28.236 102.919 31.5C107.207 34.764 110.407 38.188 112.519 41.772C113.543 43.116 114.311 44.204 114.823 45.036C117.063 48.172 118.791 50.476 120.007 51.948C121.287 53.42 122.663 54.572 124.135 55.404C125.607 56.236 127.335 56.652 129.319 56.652C130.023 56.652 130.631 57.324 131.143 58.668C131.719 59.948 132.007 61.292 132.007 62.7C132.007 64.108 131.719 65.452 131.143 66.732C130.631 68.012 130.023 68.652 129.319 68.652C125.351 68.652 122.055 68.076 119.431 66.924C116.871 65.772 114.503 63.948 112.327 61.452C110.471 63.82 107.911 65.676 104.647 67.02C101.383 68.364 97.5748 69.036 93.2228 69.036H76.1348V56.94Z" fill="#25292A"/>
<path d="M129.281 56.652C133.953 56.652 137.249 56.3 139.169 55.596C141.089 54.892 142.273 53.644 142.721 51.852C143.233 49.996 143.489 46.732 143.489 42.06V33.132H155.489V42.06C155.489 46.732 155.713 49.996 156.161 51.852C156.609 53.644 157.761 54.892 159.617 55.596C161.537 56.236 164.833 56.588 169.505 56.652H170.369C176.513 48.332 183.265 42.028 190.625 37.74C198.049 33.452 205.153 31.5 211.937 31.884C215.201 32.076 218.017 33.004 220.385 34.668C222.817 36.268 224.673 38.316 225.953 40.812C227.233 43.308 227.873 45.964 227.873 48.78C227.873 51.596 227.265 54.22 226.049 56.652H236.033L239.105 62.7L236.033 68.652H168.737C159.713 68.588 153.217 66.412 149.249 62.124C145.217 66.476 138.561 68.652 129.281 68.652V56.652ZM198.401 56.652H201.377H201.761C206.753 56.652 210.465 55.852 212.897 54.252C215.329 52.588 216.545 50.668 216.545 48.492C216.545 47.02 216.001 45.74 214.913 44.652C213.889 43.5 212.577 42.86 210.977 42.732L209.249 42.636C205.281 42.636 200.929 43.756 196.193 45.996C191.457 48.172 186.785 51.724 182.177 56.652H198.401Z" fill="#D80027"/>
<path d="M236.062 56.652C240.095 56.652 243.071 56.268 244.991 55.5C246.975 54.668 248.319 53.26 249.023 51.276C249.791 49.228 250.174 46.156 250.174 42.06V0.299995H262.175V42.06C262.175 49.484 261.663 54.956 260.639 58.476C259.679 61.932 257.375 64.492 253.727 66.156C250.079 67.82 244.191 68.652 236.062 68.652V56.652ZM267.483 67.5V0.299995H279.483V67.5H267.483Z" fill="#4F7434"/>
</svg>
