<svg width="16" height="16" viewBox="0 0 16 16" fill="none" xmlns="http://www.w3.org/2000/svg">
<rect width="16" height="16" rx="8" fill="white"/>
<path d="M2.88 8.496C2.74933 8.76533 2.684 9.01333 2.684 9.24C2.684 9.42933 2.728 9.58933 2.816 9.72C2.904 9.85333 3.01867 9.95333 3.16 10.02C3.304 10.0867 3.45867 10.12 3.624 10.12C3.74133 10.12 3.85333 10.104 3.96 10.072C4.16 10.0107 4.29733 9.932 4.372 9.836C4.44933 9.74 4.492 9.62667 4.5 9.496C4.436 9.50667 4.35333 9.512 4.252 9.512C3.82533 9.512 3.612 9.312 3.612 8.912C3.612 8.79467 3.63733 8.68533 3.688 8.584C3.74133 8.48 3.81333 8.39733 3.904 8.336C3.99733 8.27467 4.1 8.244 4.212 8.244C4.428 8.244 4.59333 8.31867 4.708 8.468C4.82267 8.61733 4.892 8.78933 4.916 8.984C4.92133 9.08 4.924 9.16667 4.924 9.244C4.924 9.55333 4.86667 9.83333 4.752 10.084C4.63733 10.3347 4.41467 10.5093 4.084 10.608C3.95067 10.6453 3.812 10.664 3.668 10.664C3.42 10.664 3.17733 10.612 2.94 10.508C2.70533 10.4067 2.512 10.2533 2.36 10.048C2.208 9.84267 2.132 9.59467 2.132 9.304C2.132 8.99467 2.22267 8.65867 2.404 8.296L2.88 8.496ZM4.044 8.864C4.044 8.90933 4.06133 8.94933 4.096 8.984C4.13067 9.01867 4.18267 9.036 4.252 9.036C4.31867 9.036 4.37067 9.036 4.408 9.036C4.44533 9.03333 4.47333 9.032 4.492 9.032C4.492 8.96533 4.476 8.896 4.444 8.824C4.412 8.74933 4.34133 8.712 4.232 8.712C4.176 8.712 4.13067 8.728 4.096 8.76C4.06133 8.78933 4.044 8.824 4.044 8.864ZM3.932 7.9C3.85733 7.9 3.792 7.87333 3.736 7.82C3.68267 7.764 3.656 7.69867 3.656 7.624C3.656 7.54667 3.68267 7.48133 3.736 7.428C3.792 7.37467 3.85733 7.348 3.932 7.348C4.00933 7.348 4.07467 7.37467 4.128 7.428C4.18133 7.48133 4.208 7.54667 4.208 7.624C4.208 7.69867 4.18133 7.764 4.128 7.82C4.07467 7.87333 4.00933 7.9 3.932 7.9ZM4.276 7.624C4.276 7.54667 4.30267 7.48133 4.356 7.428C4.412 7.37467 4.47733 7.348 4.552 7.348C4.62933 7.348 4.69467 7.37467 4.748 7.428C4.80133 7.48133 4.828 7.54667 4.828 7.624C4.828 7.69867 4.80133 7.764 4.748 7.82C4.69467 7.87333 4.62933 7.9 4.552 7.9C4.47733 7.9 4.412 7.87333 4.356 7.82C4.30267 7.764 4.276 7.69867 4.276 7.624ZM5.29728 9.06H6.03728C6.16795 9.06 6.26661 9.04267 6.33328 9.008C6.40261 8.97067 6.43728 8.91867 6.43728 8.852C6.43728 8.756 6.36528 8.644 6.22128 8.516C6.07995 8.38533 5.87995 8.25733 5.62128 8.132L5.75728 7.644C6.01861 7.74533 6.23728 7.864 6.41328 8C6.59195 8.136 6.72528 8.27867 6.81328 8.428C6.85595 8.484 6.88795 8.52933 6.90928 8.564C7.00261 8.69467 7.07461 8.79067 7.12528 8.852C7.17861 8.91333 7.23595 8.96133 7.29728 8.996C7.35861 9.03067 7.43061 9.048 7.51328 9.048C7.54261 9.048 7.56795 9.076 7.58928 9.132C7.61328 9.18533 7.62528 9.24133 7.62528 9.3C7.62528 9.35867 7.61328 9.41467 7.58928 9.468C7.56795 9.52133 7.54261 9.548 7.51328 9.548C7.34795 9.548 7.21061 9.524 7.10128 9.476C6.99461 9.428 6.89595 9.352 6.80528 9.248C6.72795 9.34667 6.62128 9.424 6.48528 9.48C6.34928 9.536 6.19061 9.564 6.00928 9.564H5.29728V9.06Z" fill="#25292A"/>
<path d="M7.51172 9.048C7.70639 9.048 7.84372 9.03333 7.92372 9.004C8.00372 8.97467 8.05305 8.92267 8.07172 8.848C8.09305 8.77067 8.10372 8.63467 8.10372 8.44V8.068H8.60372V8.44C8.60372 8.63467 8.61305 8.77067 8.63172 8.848C8.65039 8.92267 8.69839 8.97467 8.77572 9.004C8.85572 9.03067 8.99305 9.04533 9.18772 9.048H9.22372C9.47972 8.70133 9.76105 8.43867 10.0677 8.26C10.3771 8.08133 10.6731 8 10.9557 8.016C11.0917 8.024 11.2091 8.06267 11.3077 8.132C11.4091 8.19867 11.4864 8.284 11.5397 8.388C11.5931 8.492 11.6197 8.60267 11.6197 8.72C11.6197 8.83733 11.5944 8.94667 11.5437 9.048H11.9597L12.0877 9.3L11.9597 9.548H9.15572C8.77972 9.54533 8.50905 9.45467 8.34372 9.276C8.17572 9.45733 7.89839 9.548 7.51172 9.548V9.048ZM10.3917 9.048H10.5157H10.5317C10.7397 9.048 10.8944 9.01467 10.9957 8.948C11.0971 8.87867 11.1477 8.79867 11.1477 8.708C11.1477 8.64667 11.1251 8.59333 11.0797 8.548C11.0371 8.5 10.9824 8.47333 10.9157 8.468L10.8437 8.464C10.6784 8.464 10.4971 8.51067 10.2997 8.604C10.1024 8.69467 9.90772 8.84267 9.71572 9.048H10.3917Z" fill="#D80027"/>
<path d="M11.9609 9.048C12.1289 9.048 12.2529 9.032 12.3329 9C12.4156 8.96533 12.4716 8.90667 12.5009 8.824C12.5329 8.73867 12.5489 8.61067 12.5489 8.44V6.7H13.0489V8.44C13.0489 8.74933 13.0276 8.97733 12.9849 9.124C12.9449 9.268 12.8489 9.37467 12.6969 9.444C12.5449 9.51333 12.2996 9.548 11.9609 9.548V9.048ZM13.2701 9.5V6.7H13.7701V9.5H13.2701Z" fill="#4F7434"/>
</svg>
