<svg width="512" height="512" viewBox="0 0 512 512" fill="none" xmlns="http://www.w3.org/2000/svg">
<rect width="512" height="512" rx="64" fill="#E8ECF3"/>
<path d="M112.3 176.627C102.9 199.427 98.2 219.627 98.2 237.227C98.2 256.627 103.5 271.227 114.1 281.027C124.7 291.027 138.3 296.027 154.9 296.027C164.5 296.027 173.5 294.627 181.9 291.827C193.5 288.227 202.1 282.327 207.7 274.127C213.5 265.727 217.2 256.027 218.8 245.027C220.4 234.027 221.2 219.827 221.2 202.427V166.727H266.2V218.327C266.2 225.127 266.5 229.927 267.1 232.727C267.9 235.527 269.5 237.427 271.9 238.427C284.7 221.227 299.4 206.727 316 194.927C332.6 183.127 349.4 174.527 366.4 169.127C383.4 163.527 399 161.227 413.2 162.227C424 162.827 433.3 165.827 441.1 171.227C449.1 176.627 455.2 183.527 459.4 191.927C463.6 200.127 465.7 208.927 465.7 218.327C465.7 229.527 462.6 240.227 456.4 250.427C450.2 260.427 440.8 268.627 428.2 275.027C415.6 281.427 400 284.627 381.4 284.627H278.2V284.327C269.8 283.727 262.4 281.927 256 278.927C245.8 311.527 226.2 332.727 197.2 342.527C184.2 346.927 170.6 349.127 156.4 349.127C137.2 349.127 119.2 345.027 102.4 336.827C85.6 328.627 72 316.527 61.6 300.527C51.2 284.727 46 265.927 46 244.127C46 219.927 53.1 193.027 67.3 163.427L112.3 176.627ZM381.4 239.627C394.6 239.627 404.3 238.127 410.5 235.127C416.7 232.127 419.8 228.427 419.8 224.027C419.8 220.027 417.6 216.427 413.2 213.227C409 210.027 404.2 208.427 398.8 208.427C386.6 208.427 374.3 210.927 361.9 215.927C349.7 220.727 338.3 228.627 327.7 239.627H381.4Z" fill="#4F7434"/>
<path d="M98.2 237.227C98.2 219.627 102.9 199.427 112.3 176.627L67.3 163.427C53.1 193.027 46 219.927 46 244.127C46 265.927 51.2 284.727 61.6 300.527C72 316.527 85.6 328.627 102.4 336.827C119.2 345.027 137.2 349.127 156.4 349.127C170.6 349.127 184.2 346.927 197.2 342.527C225.573 332.939 244.948 312.439 255.325 281.026C254.728 278.216 266.2 225.127 266.2 218.327V166.727H221.2V202.427C221.2 219.827 220.4 234.027 218.8 245.027C217.2 256.027 213.5 265.727 207.7 274.127C202.1 282.327 193.5 288.227 181.9 291.827C173.5 294.627 164.5 296.027 154.9 296.027C138.3 296.027 124.7 291.027 114.1 281.027C103.5 271.227 98.2 256.627 98.2 237.227Z" fill="#25292A"/>
<path d="M181.9 291.827C173.5 294.627 164.5 296.027 154.9 296.027L156.4 349.127C170.6 349.127 184.2 346.927 197.2 342.527C225.573 332.939 244.948 312.439 255.325 281.026C254.728 278.216 266.2 225.127 266.2 218.327V166.727H221.2V202.427C221.2 219.827 220.4 234.027 218.8 245.027C217.2 256.027 213.5 265.727 207.7 274.127C202.1 282.327 193.5 288.227 181.9 291.827Z" fill="#D80027"/>
</svg>
