<svg width="512" height="512" viewBox="0 0 512 512" fill="none" xmlns="http://www.w3.org/2000/svg">
<rect width="512" height="512" rx="64" fill="#E8ECF3"/>
<path d="M56.82 279.344C51.724 289.848 49.176 299.52 49.176 308.36C49.176 315.744 50.892 321.984 54.324 327.08C57.756 332.28 62.228 336.18 67.74 338.78C73.356 341.38 79.388 342.68 85.836 342.68C90.412 342.68 94.78 342.056 98.94 340.808C106.74 338.416 112.096 335.348 115.008 331.604C118.024 327.86 119.688 323.44 120 318.344C117.504 318.76 114.28 318.968 110.328 318.968C93.688 318.968 85.368 311.168 85.368 295.568C85.368 290.992 86.356 286.728 88.332 282.776C90.412 278.72 93.22 275.496 96.756 273.104C100.396 270.712 104.4 269.516 108.768 269.516C117.192 269.516 123.64 272.428 128.112 278.252C132.584 284.076 135.288 290.784 136.224 298.376C136.432 302.12 136.536 305.5 136.536 308.516C136.536 320.58 134.3 331.5 129.828 341.276C125.356 351.052 116.672 357.864 103.776 361.712C98.576 363.168 93.168 363.896 87.552 363.896C77.88 363.896 68.416 361.868 59.16 357.812C50.008 353.86 42.468 347.88 36.54 339.872C30.612 331.864 27.648 322.192 27.648 310.856C27.648 298.792 31.184 285.688 38.256 271.544L56.82 279.344ZM102.216 293.696C102.216 295.464 102.892 297.024 104.244 298.376C105.596 299.728 107.624 300.404 110.328 300.404C112.928 300.404 114.956 300.404 116.412 300.404C117.868 300.3 118.96 300.248 119.688 300.248C119.688 297.648 119.064 294.944 117.816 292.136C116.568 289.224 113.812 287.768 109.548 287.768C107.364 287.768 105.596 288.392 104.244 289.64C102.892 290.784 102.216 292.136 102.216 293.696ZM97.848 256.1C94.936 256.1 92.388 255.06 90.204 252.98C88.124 250.796 87.084 248.248 87.084 245.336C87.084 242.32 88.124 239.772 90.204 237.692C92.388 235.612 94.936 234.572 97.848 234.572C100.864 234.572 103.412 235.612 105.492 237.692C107.572 239.772 108.612 242.32 108.612 245.336C108.612 248.248 107.572 250.796 105.492 252.98C103.412 255.06 100.864 256.1 97.848 256.1ZM111.264 245.336C111.264 242.32 112.304 239.772 114.384 237.692C116.568 235.612 119.116 234.572 122.028 234.572C125.044 234.572 127.592 235.612 129.672 237.692C131.752 239.772 132.792 242.32 132.792 245.336C132.792 248.248 131.752 250.796 129.672 252.98C127.592 255.06 125.044 256.1 122.028 256.1C119.116 256.1 116.568 255.06 114.384 252.98C112.304 250.796 111.264 248.248 111.264 245.336ZM151.094 301.34H179.954C185.05 301.34 188.898 300.664 191.498 299.312C194.202 297.856 195.554 295.828 195.554 293.228C195.554 289.484 192.746 285.116 187.13 280.124C181.618 275.028 173.818 270.036 163.73 265.148L169.034 246.116C179.226 250.068 187.754 254.696 194.618 260C201.586 265.304 206.786 270.868 210.218 276.692C211.882 278.876 213.13 280.644 213.962 281.996C217.602 287.092 220.41 290.836 222.386 293.228C224.466 295.62 226.702 297.492 229.094 298.844C231.486 300.196 234.294 300.872 237.518 300.872C238.662 300.872 239.65 301.964 240.482 304.148C241.418 306.228 241.886 308.412 241.886 310.7C241.886 312.988 241.418 315.172 240.482 317.252C239.65 319.332 238.662 320.372 237.518 320.372C231.07 320.372 225.714 319.436 221.45 317.564C217.29 315.692 213.442 312.728 209.906 308.672C206.89 312.52 202.73 315.536 197.426 317.72C192.122 319.904 185.934 320.996 178.862 320.996H151.094V301.34Z" fill="#25292A"/>
<path d="M237.457 300.872C245.049 300.872 250.405 300.3 253.525 299.156C256.645 298.012 258.569 295.984 259.297 293.072C260.129 290.056 260.545 284.752 260.545 277.16V262.652H280.045V277.16C280.045 284.752 280.409 290.056 281.137 293.072C281.865 295.984 283.737 298.012 286.753 299.156C289.873 300.196 295.229 300.768 302.821 300.872H304.225C314.209 287.352 325.181 277.108 337.141 270.14C349.205 263.172 360.749 260 371.773 260.624C377.077 260.936 381.653 262.444 385.501 265.148C389.453 267.748 392.469 271.076 394.549 275.132C396.629 279.188 397.669 283.504 397.669 288.08C397.669 292.656 396.681 296.92 394.705 300.872H410.929L415.921 310.7L410.929 320.372H301.573C286.909 320.268 276.353 316.732 269.905 309.764C263.353 316.836 252.537 320.372 237.457 320.372V300.872ZM349.777 300.872H354.613H355.237C363.349 300.872 369.381 299.572 373.333 296.972C377.285 294.268 379.261 291.148 379.261 287.612C379.261 285.22 378.377 283.14 376.609 281.372C374.945 279.5 372.813 278.46 370.213 278.252L367.405 278.096C360.957 278.096 353.885 279.916 346.189 283.556C338.493 287.092 330.901 292.864 323.413 300.872H349.777Z" fill="#D80027"/>
<path d="M410.977 300.872C417.529 300.872 422.365 300.248 425.485 299C428.709 297.648 430.893 295.36 432.037 292.136C433.285 288.808 433.909 283.816 433.909 277.16V209.3H453.409V277.16C453.409 289.224 452.577 298.116 450.913 303.836C449.353 309.452 445.609 313.612 439.681 316.316C433.753 319.02 424.185 320.372 410.977 320.372V300.872ZM462.035 318.5V209.3H481.535V318.5H462.035Z" fill="#4F7434"/>
</svg>
