<svg width="96" height="44" viewBox="0 0 96 44" fill="none" xmlns="http://www.w3.org/2000/svg">
<path d="M3.08 10.486C2.62267 11.4287 2.394 12.2967 2.394 13.09C2.394 13.7527 2.548 14.3127 2.856 14.77C3.164 15.2367 3.56533 15.5867 4.06 15.82C4.564 16.0533 5.10533 16.17 5.684 16.17C6.09467 16.17 6.48667 16.114 6.86 16.002C7.56 15.7873 8.04067 15.512 8.302 15.176C8.57267 14.84 8.722 14.4433 8.75 13.986C8.526 14.0233 8.23667 14.042 7.882 14.042C6.38867 14.042 5.642 13.342 5.642 11.942C5.642 11.5313 5.73067 11.1487 5.908 10.794C6.09467 10.43 6.34667 10.1407 6.664 9.926C6.99067 9.71133 7.35 9.604 7.742 9.604C8.498 9.604 9.07667 9.86533 9.478 10.388C9.87933 10.9107 10.122 11.5127 10.206 12.194C10.2247 12.53 10.234 12.8333 10.234 13.104C10.234 14.1867 10.0333 15.1667 9.632 16.044C9.23067 16.9213 8.45133 17.5327 7.294 17.878C6.82733 18.0087 6.342 18.074 5.838 18.074C4.97 18.074 4.12067 17.892 3.29 17.528C2.46867 17.1733 1.792 16.6367 1.26 15.918C0.728 15.1993 0.462 14.3313 0.462 13.314C0.462 12.2313 0.779333 11.0553 1.414 9.786L3.08 10.486ZM7.154 11.774C7.154 11.9327 7.21467 12.0727 7.336 12.194C7.45733 12.3153 7.63933 12.376 7.882 12.376C8.11533 12.376 8.29733 12.376 8.428 12.376C8.55867 12.3667 8.65667 12.362 8.722 12.362C8.722 12.1287 8.666 11.886 8.554 11.634C8.442 11.3727 8.19467 11.242 7.812 11.242C7.616 11.242 7.45733 11.298 7.336 11.41C7.21467 11.5127 7.154 11.634 7.154 11.774ZM6.762 8.4C6.50067 8.4 6.272 8.30667 6.076 8.12C5.88933 7.924 5.796 7.69533 5.796 7.434C5.796 7.16333 5.88933 6.93467 6.076 6.748C6.272 6.56133 6.50067 6.468 6.762 6.468C7.03267 6.468 7.26133 6.56133 7.448 6.748C7.63467 6.93467 7.728 7.16333 7.728 7.434C7.728 7.69533 7.63467 7.924 7.448 8.12C7.26133 8.30667 7.03267 8.4 6.762 8.4ZM7.966 7.434C7.966 7.16333 8.05933 6.93467 8.246 6.748C8.442 6.56133 8.67067 6.468 8.932 6.468C9.20267 6.468 9.43133 6.56133 9.618 6.748C9.80467 6.93467 9.898 7.16333 9.898 7.434C9.898 7.69533 9.80467 7.924 9.618 8.12C9.43133 8.30667 9.20267 8.4 8.932 8.4C8.67067 8.4 8.442 8.30667 8.246 8.12C8.05933 7.924 7.966 7.69533 7.966 7.434ZM11.5405 12.46H14.1305C14.5878 12.46 14.9332 12.3993 15.1665 12.278C15.4092 12.1473 15.5305 11.9653 15.5305 11.732C15.5305 11.396 15.2785 11.004 14.7745 10.556C14.2798 10.0987 13.5798 9.65067 12.6745 9.212L13.1505 7.504C14.0652 7.85867 14.8305 8.274 15.4465 8.75C16.0718 9.226 16.5385 9.72533 16.8465 10.248C16.9958 10.444 17.1078 10.6027 17.1825 10.724C17.5092 11.1813 17.7612 11.5173 17.9385 11.732C18.1252 11.9467 18.3258 12.1147 18.5405 12.236C18.7552 12.3573 19.0072 12.418 19.2965 12.418C19.3992 12.418 19.4878 12.516 19.5625 12.712C19.6465 12.8987 19.6885 13.0947 19.6885 13.3C19.6885 13.5053 19.6465 13.7013 19.5625 13.888C19.4878 14.0747 19.3992 14.168 19.2965 14.168C18.7178 14.168 18.2372 14.084 17.8545 13.916C17.4812 13.748 17.1358 13.482 16.8185 13.118C16.5478 13.4633 16.1745 13.734 15.6985 13.93C15.2225 14.126 14.6672 14.224 14.0325 14.224H11.5405V12.46Z" fill="#25292A"/>
<path d="M19.291 12.418C19.9723 12.418 20.453 12.3667 20.733 12.264C21.013 12.1613 21.1857 11.9793 21.251 11.718C21.3257 11.4473 21.363 10.9713 21.363 10.29V8.988H23.113V10.29C23.113 10.9713 23.1457 11.4473 23.211 11.718C23.2763 11.9793 23.4443 12.1613 23.715 12.264C23.995 12.3573 24.4757 12.4087 25.157 12.418H25.283C26.179 11.2047 27.1637 10.2853 28.237 9.66C29.3197 9.03467 30.3557 8.75 31.345 8.806C31.821 8.834 32.2317 8.96933 32.577 9.212C32.9317 9.44533 33.2023 9.744 33.389 10.108C33.5757 10.472 33.669 10.8593 33.669 11.27C33.669 11.6807 33.5803 12.0633 33.403 12.418H34.859L35.307 13.3L34.859 14.168H25.045C23.729 14.1587 22.7817 13.8413 22.203 13.216C21.615 13.8507 20.6443 14.168 19.291 14.168V12.418ZM29.371 12.418H29.805H29.861C30.589 12.418 31.1303 12.3013 31.485 12.068C31.8397 11.8253 32.017 11.5453 32.017 11.228C32.017 11.0133 31.9377 10.8267 31.779 10.668C31.6297 10.5 31.4383 10.4067 31.205 10.388L30.953 10.374C30.3743 10.374 29.7397 10.5373 29.049 10.864C28.3583 11.1813 27.677 11.6993 27.005 12.418H29.371Z" fill="#D80027"/>
<path d="M34.8633 12.418C35.4513 12.418 35.8853 12.362 36.1653 12.25C36.4546 12.1287 36.6506 11.9233 36.7533 11.634C36.8653 11.3353 36.9213 10.8873 36.9213 10.29V4.2H38.6713V10.29C38.6713 11.3727 38.5966 12.1707 38.4473 12.684C38.3073 13.188 37.9713 13.5613 37.4393 13.804C36.9073 14.0467 36.0486 14.168 34.8633 14.168V12.418ZM39.4454 14V4.2H41.1954V14H39.4454Z" fill="#4F7434"/>
<path d="M0.264 39L6.432 21.12H10.656L16.824 39H13.272L12 35.16H5.088L3.792 39H0.264ZM6.024 32.28H11.064L8.088 23.376H9L6.024 32.28ZM18.5499 39V20.832H21.6939V39H18.5499ZM29.5648 39.288C28.1728 39.288 26.9568 38.96 25.9168 38.304C24.8928 37.632 24.1888 36.728 23.8048 35.592L26.1568 34.464C26.4928 35.2 26.9568 35.776 27.5488 36.192C28.1568 36.608 28.8288 36.816 29.5648 36.816C30.1408 36.816 30.5968 36.688 30.9328 36.432C31.2688 36.176 31.4368 35.84 31.4368 35.424C31.4368 35.168 31.3648 34.96 31.2208 34.8C31.0928 34.624 30.9088 34.48 30.6688 34.368C30.4448 34.24 30.1968 34.136 29.9248 34.056L27.7888 33.456C26.6848 33.136 25.8448 32.648 25.2688 31.992C24.7088 31.336 24.4288 30.56 24.4288 29.664C24.4288 28.864 24.6288 28.168 25.0288 27.576C25.4448 26.968 26.0128 26.496 26.7328 26.16C27.4688 25.824 28.3088 25.656 29.2528 25.656C30.4848 25.656 31.5728 25.952 32.5168 26.544C33.4608 27.136 34.1328 27.968 34.5328 29.04L32.1328 30.168C31.9088 29.576 31.5328 29.104 31.0048 28.752C30.4768 28.4 29.8848 28.224 29.2288 28.224C28.7008 28.224 28.2848 28.344 27.9808 28.584C27.6768 28.824 27.5248 29.136 27.5248 29.52C27.5248 29.76 27.5888 29.968 27.7168 30.144C27.8448 30.32 28.0208 30.464 28.2448 30.576C28.4848 30.688 28.7568 30.792 29.0608 30.888L31.1488 31.512C32.2208 31.832 33.0448 32.312 33.6208 32.952C34.2128 33.592 34.5088 34.376 34.5088 35.304C34.5088 36.088 34.3008 36.784 33.8848 37.392C33.4688 37.984 32.8928 38.448 32.1568 38.784C31.4208 39.12 30.5568 39.288 29.5648 39.288ZM40.8849 39.288C39.9729 39.288 39.1809 39.136 38.5089 38.832C37.8369 38.528 37.3169 38.096 36.9489 37.536C36.5809 36.96 36.3969 36.296 36.3969 35.544C36.3969 34.824 36.5569 34.184 36.8769 33.624C37.1969 33.048 37.6929 32.568 38.3649 32.184C39.0369 31.8 39.8849 31.528 40.9089 31.368L45.1809 30.672V33.072L41.5089 33.696C40.8849 33.808 40.4209 34.008 40.1169 34.296C39.8129 34.584 39.6609 34.96 39.6609 35.424C39.6609 35.872 39.8289 36.232 40.1649 36.504C40.5169 36.76 40.9489 36.888 41.4609 36.888C42.1169 36.888 42.6929 36.752 43.1889 36.48C43.7009 36.192 44.0929 35.8 44.3649 35.304C44.6529 34.808 44.7969 34.264 44.7969 33.672V30.312C44.7969 29.752 44.5729 29.288 44.1249 28.92C43.6929 28.536 43.1169 28.344 42.3969 28.344C41.7249 28.344 41.1249 28.528 40.5969 28.896C40.0849 29.248 39.7089 29.72 39.4689 30.312L36.9009 29.064C37.1569 28.376 37.5569 27.784 38.1009 27.288C38.6609 26.776 39.3169 26.376 40.0689 26.088C40.8209 25.8 41.6369 25.656 42.5169 25.656C43.5889 25.656 44.5329 25.856 45.3489 26.256C46.1649 26.64 46.7969 27.184 47.2449 27.888C47.7089 28.576 47.9409 29.384 47.9409 30.312V39H44.9649V36.768L45.6369 36.72C45.3009 37.28 44.9009 37.752 44.4369 38.136C43.9729 38.504 43.4449 38.792 42.8529 39C42.2609 39.192 41.6049 39.288 40.8849 39.288ZM56.9188 39.288C55.6548 39.288 54.5268 38.992 53.5348 38.4C52.5428 37.792 51.7588 36.968 51.1828 35.928C50.6068 34.888 50.3188 33.736 50.3188 32.472C50.3188 31.192 50.6068 30.04 51.1828 29.016C51.7588 27.992 52.5428 27.176 53.5348 26.568C54.5428 25.96 55.6628 25.656 56.8948 25.656C57.8868 25.656 58.7668 25.856 59.5348 26.256C60.3188 26.64 60.9348 27.184 61.3828 27.888L60.9028 28.536V20.832H64.0468V39H61.0708V36.48L61.4068 37.104C60.9588 37.808 60.3348 38.352 59.5348 38.736C58.7348 39.104 57.8628 39.288 56.9188 39.288ZM57.2548 36.408C57.9748 36.408 58.6068 36.24 59.1508 35.904C59.6948 35.568 60.1188 35.104 60.4228 34.512C60.7428 33.92 60.9028 33.24 60.9028 32.472C60.9028 31.72 60.7428 31.048 60.4228 30.456C60.1188 29.848 59.6948 29.376 59.1508 29.04C58.6068 28.704 57.9748 28.536 57.2548 28.536C56.5508 28.536 55.9188 28.712 55.3588 29.064C54.7988 29.4 54.3588 29.864 54.0388 30.456C53.7348 31.032 53.5828 31.704 53.5828 32.472C53.5828 33.24 53.7348 33.92 54.0388 34.512C54.3588 35.104 54.7988 35.568 55.3588 35.904C55.9188 36.24 56.5508 36.408 57.2548 36.408ZM70.9318 39.288C70.0198 39.288 69.2278 39.136 68.5558 38.832C67.8838 38.528 67.3638 38.096 66.9958 37.536C66.6278 36.96 66.4438 36.296 66.4438 35.544C66.4438 34.824 66.6038 34.184 66.9238 33.624C67.2438 33.048 67.7398 32.568 68.4118 32.184C69.0838 31.8 69.9318 31.528 70.9558 31.368L75.2278 30.672V33.072L71.5558 33.696C70.9318 33.808 70.4678 34.008 70.1638 34.296C69.8598 34.584 69.7078 34.96 69.7078 35.424C69.7078 35.872 69.8758 36.232 70.2118 36.504C70.5638 36.76 70.9958 36.888 71.5078 36.888C72.1638 36.888 72.7398 36.752 73.2358 36.48C73.7478 36.192 74.1398 35.8 74.4118 35.304C74.6998 34.808 74.8438 34.264 74.8438 33.672V30.312C74.8438 29.752 74.6198 29.288 74.1718 28.92C73.7398 28.536 73.1638 28.344 72.4438 28.344C71.7718 28.344 71.1718 28.528 70.6438 28.896C70.1318 29.248 69.7558 29.72 69.5158 30.312L66.9478 29.064C67.2038 28.376 67.6038 27.784 68.1478 27.288C68.7078 26.776 69.3638 26.376 70.1158 26.088C70.8678 25.8 71.6838 25.656 72.5638 25.656C73.6358 25.656 74.5798 25.856 75.3958 26.256C76.2118 26.64 76.8438 27.184 77.2918 27.888C77.7558 28.576 77.9878 29.384 77.9878 30.312V39H75.0118V36.768L75.6838 36.72C75.3478 37.28 74.9478 37.752 74.4838 38.136C74.0198 38.504 73.4918 38.792 72.8998 39C72.3078 39.192 71.6518 39.288 70.9318 39.288ZM90.9497 43.8V36.48L91.4537 37.104C91.0057 37.808 90.3817 38.352 89.5817 38.736C88.7817 39.104 87.9097 39.288 86.9657 39.288C85.7017 39.288 84.5737 38.992 83.5817 38.4C82.5897 37.792 81.8057 36.968 81.2297 35.928C80.6537 34.888 80.3657 33.736 80.3657 32.472C80.3657 31.192 80.6537 30.04 81.2297 29.016C81.8057 27.992 82.5897 27.176 83.5817 26.568C84.5897 25.96 85.7097 25.656 86.9417 25.656C87.9337 25.656 88.8137 25.856 89.5817 26.256C90.3657 26.64 90.9817 27.184 91.4297 27.888L91.1177 28.536V25.944H94.0937V43.8H90.9497ZM87.3017 36.408C88.0217 36.408 88.6537 36.24 89.1977 35.904C89.7417 35.568 90.1657 35.104 90.4697 34.512C90.7897 33.92 90.9497 33.24 90.9497 32.472C90.9497 31.72 90.7897 31.048 90.4697 30.456C90.1657 29.848 89.7417 29.376 89.1977 29.04C88.6537 28.704 88.0217 28.536 87.3017 28.536C86.5977 28.536 85.9657 28.712 85.4057 29.064C84.8457 29.4 84.4057 29.864 84.0857 30.456C83.7817 31.032 83.6297 31.704 83.6297 32.472C83.6297 33.24 83.7817 33.92 84.0857 34.512C84.4057 35.104 84.8457 35.568 85.4057 35.904C85.9657 36.24 86.5977 36.408 87.3017 36.408Z" fill="#25292A"/>
</svg>
